  0
SECTION
  2
HEADER
  9
$ACADVER
  1
AC1014
  9
$HANDSEED
  5
FFFF
  9
$INSUNITS
 70
     0
  9
$MEASUREMENT
 70
     1
  0
ENDSEC
  0
SECTION
  2
TABLES
  0
TABLE
  2
VPORT
  5
8
330
0
100
AcDbSymbolTable
 70
     4
  0
VPORT
  5
2E
330
8
100
AcDbSymbolTableRecord
100
AcDbViewportTableRecord
  2
*ACTIVE
 70
     0
 10
0.0
 20
0.0
 11
1.0
 21
1.0
 12
210.0
 22
148.5
 13
0.0
 23
0.0
 14
10.0
 24
10.0
 15
10.0
 25
10.0
 16
0.0
 26
0.0
 36
1.0
 17
0.0
 27
0.0
 37
0.0
 40
341.0
 41
1.24
 42
50.0
 43
0.0
 44
0.0
 50
0.0
 51
0.0
 71
     0
 72
   100
 73
     1
 74
     3
 75
     0
 76
     0
 77
     0
 78
     0
  0
ENDTAB
  0
TABLE
  2
LTYPE
  5
5
330
0
100
AcDbSymbolTable
 70
     1
  0
LTYPE
  5
14
330
5
100
AcDbSymbolTableRecord
100
AcDbLinetypeTableRecord
  2
BYBLOCK
 70
     0
  3

 72
    65
 73
     0
 40
0.0
  0
LTYPE
  5
15
330
5
100
AcDbSymbolTableRecord
100
AcDbLinetypeTableRecord
  2
BYLAYER
 70
     0
  3

 72
    65
 73
     0
 40
0.0
  0
LTYPE
  5
16
330
5
100
AcDbSymbolTableRecord
100
AcDbLinetypeTableRecord
  2
CONTINUOUS
 70
     0
  3
Solid line
 72
    65
 73
     0
 40
0.0
  0
ENDTAB
  0
TABLE
  2
LAYER
  5
2
100
AcDbSymbolTable
 70
2
  0
LAYER
  5
50
100
AcDbSymbolTableRecord
100
AcDbLayerTableRecord
  2
0
 70
0
  6
CONTINUOUS
  0
LAYER
  5
51
100
AcDbSymbolTableRecord
100
AcDbLayerTableRecord
  2
Layer_1
 70
0
  6
CONTINUOUS
  0
ENDTAB
  0
TABLE
  2
STYLE
  5
3
330
0
100
AcDbSymbolTable
 70
     1
  0
STYLE
  5
11
330
3
100
AcDbSymbolTableRecord
100
AcDbTextStyleTableRecord
  2
STANDARD
 70
     0
 40
0.0
 41
1.0
 50
0.0
 71
     0
 42
2.5
  3
txt
  4

  0
ENDTAB
  0
TABLE
  2
VIEW
  5
6
330
0
100
AcDbSymbolTable
 70
     0
  0
ENDTAB
  0
TABLE
  2
UCS
  5
7
330
0
100
AcDbSymbolTable
 70
     0
  0
ENDTAB
  0
TABLE
  2
APPID
  5
9
330
0
100
AcDbSymbolTable
 70
     2
  0
APPID
  5
12
330
9
100
AcDbSymbolTableRecord
100
AcDbRegAppTableRecord
  2
ACAD
 70
     0
  0
ENDTAB
  0
TABLE
  2
DIMSTYLE
  5
A
330
0
100
AcDbSymbolTable
 70
     1
  0
DIMSTYLE
105
27
330
A
100
AcDbSymbolTableRecord
100
AcDbDimStyleTableRecord
  2
ISO-25
 70
     0
  3

  4

  5

  6

  7

 40
1.0
 41
2.5
 42
0.625
 43
3.75
 44
1.25
 45
0.0
 46
0.0
 47
0.0
 48
0.0
140
2.5
141
2.5
142
0.0
143
0.03937007874016
144
1.0
145
0.0
146
1.0
147
0.625
 71
     0
 72
     0
 73
     0
 74
     0
 75
     0
 76
     0
 77
     1
 78
     8
170
     0
171
     3
172
     1
173
     0
174
     0
175
     0
176
     0
177
     0
178
     0
270
     2
271
     2
272
     2
273
     2
274
     3
340
11
275
     0
280
     0
281
     0
282
     0
283
     0
284
     8
285
     0
286
     0
287
     3
288
     0
  0
ENDTAB
  0
TABLE
  2
BLOCK_RECORD
  5
1
330
0
100
AcDbSymbolTable
 70
     1
  0
BLOCK_RECORD
  5
1F
330
1
100
AcDbSymbolTableRecord
100
AcDbBlockTableRecord
  2
*MODEL_SPACE
  0
BLOCK_RECORD
  5
1B
330
1
100
AcDbSymbolTableRecord
100
AcDbBlockTableRecord
  2
*PAPER_SPACE
  0
ENDTAB
  0
ENDSEC
  0
SECTION
  2
BLOCKS
  0
BLOCK
  5
20
330
1F
100
AcDbEntity
  8
0
100
AcDbBlockBegin
  2
*MODEL_SPACE
 70
     0
 10
0.0
 20
0.0
 30
0.0
  3
*MODEL_SPACE
  1

  0
ENDBLK
  5
21
330
1F
100
AcDbEntity
  8
0
100
AcDbBlockEnd
  0
BLOCK
  5
1C
330
1B
100
AcDbEntity
 67
     1
  8
0
100
AcDbBlockBegin
  2
*PAPER_SPACE
  1

  0
ENDBLK
  5
1D
330
1B
100
AcDbEntity
 67
     1
  8
0
100
AcDbBlockEnd
  0
ENDSEC
  0
SECTION
  2
ENTITIES
  0
LWPOLYLINE
  5
100
100
AcDbEntity
  8
Layer_1
 62
7
100
AcDbPolyline
 90
20
 70
1
 10
0.720866
 20
0.699685
 30
0.0
 10
0.211748
 20
49.499685
 30
0.0
 10
-0.000008
 20
165.829685
 30
0.0
 10
0.270811
 20
295.724685
 30
0.0
 10
0.664664
 20
322.996685
 30
0.0
 10
1.279990
 20
331.518685
 30
0.0
 10
6.259470
 20
332.135685
 30
0.0
 10
18.234600
 20
332.572685
 30
0.0
 10
53.886900
 20
332.908685
 30
0.0
 10
89.666600
 20
332.536685
 30
0.0
 10
101.801000
 20
332.087685
 30
0.0
 10
107.004000
 20
331.465685
 30
0.0
 10
107.566000
 20
330.285685
 30
0.0
 10
107.994000
 20
326.636685
 30
0.0
 10
108.503000
 20
305.678685
 30
0.0
 10
108.541000
 20
165.331685
 30
0.0
 10
108.267000
 20
0.529685
 30
0.0
 10
54.854300
 20
0.259685
 30
0.0
 10
16.919900
 20
0.269685
 30
0.0
 10
0.720847
 20
0.699685
 30
0.0
  0
LWPOLYLINE
  5
101
100
AcDbEntity
  8
Layer_1
 62
7
100
AcDbPolyline
 90
29
 70
1
 10
112.000000
 20
165.845685
 30
0.0
 10
112.000000
 20
331.691685
 30
0.0
 10
114.892000
 20
332.416685
 30
0.0
 10
119.766000
 20
332.538685
 30
0.0
 10
127.425000
 20
331.813685
 30
0.0
 10
136.042000
 20
330.277685
 30
0.0
 10
144.397000
 20
328.098685
 30
0.0
 10
152.465000
 20
325.301685
 30
0.0
 10
160.218000
 20
321.911685
 30
0.0
 10
167.631000
 20
317.953685
 30
0.0
 10
174.677000
 20
313.452685
 30
0.0
 10
181.329000
 20
308.435685
 30
0.0
 10
187.561000
 20
302.925685
 30
0.0
 10
193.346000
 20
296.950685
 30
0.0
 10
198.659000
 20
290.533685
 30
0.0
 10
203.472000
 20
283.700685
 30
0.0
 10
207.759000
 20
276.476685
 30
0.0
 10
211.493000
 20
268.887685
 30
0.0
 10
214.649000
 20
260.958685
 30
0.0
 10
217.199000
 20
252.715685
 30
0.0
 10
219.118000
 20
244.182685
 30
0.0
 10
219.999000
 20
235.479685
 30
0.0
 10
220.508000
 20
216.537685
 30
0.0
 10
220.800000
 20
119.199685
 30
0.0
 10
220.152000
 20
1.689685
 30
0.0
 10
218.163000
 20
0.789685
 30
0.0
 10
210.747000
 20
0.279685
 30
0.0
 10
165.753000
 20
-0.000315
 30
0.0
 10
112.000000
 20
-0.000315
 30
0.0
  0
LWPOLYLINE
  5
102
100
AcDbEntity
  8
Layer_1
 62
7
100
AcDbPolyline
 90
31
 70
1
 10
223.584000
 20
1.679685
 30
0.0
 10
222.933000
 20
166.409685
 30
0.0
 10
222.959000
 20
268.484685
 30
0.0
 10
223.564000
 20
317.228685
 30
0.0
 10
224.331000
 20
327.700685
 30
0.0
 10
225.540000
 20
332.159685
 30
0.0
 10
226.340000
 20
332.895685
 30
0.0
 10
227.288000
 20
333.044685
 30
0.0
 10
229.676000
 20
332.794685
 30
0.0
 10
236.220000
 20
332.239685
 30
0.0
 10
244.682000
 20
330.795685
 30
0.0
 10
253.502000
 20
328.776685
 30
0.0
 10
261.117000
 20
326.493685
 30
0.0
 10
271.100000
 20
322.327685
 30
0.0
 10
280.642000
 20
317.128685
 30
0.0
 10
289.634000
 20
310.996685
 30
0.0
 10
297.967000
 20
304.033685
 30
0.0
 10
305.532000
 20
296.338685
 30
0.0
 10
312.221000
 20
288.012685
 30
0.0
 10
317.924000
 20
279.154685
 30
0.0
 10
322.535000
 20
269.865685
 30
0.0
 10
326.440000
 20
260.798685
 30
0.0
 10
329.570000
 20
249.433685
 30
0.0
 10
330.802000
 20
241.952685
 30
0.0
 10
331.418000
 20
225.505685
 30
0.0
 10
331.471000
 20
120.369685
 30
0.0
 10
331.200000
 20
0.529685
 30
0.0
 10
277.718000
 20
0.259685
 30
0.0
 10
232.842000
 20
0.299685
 30
0.0
 10
225.529000
 20
0.779685
 30
0.0
 10
223.584000
 20
1.679685
 30
0.0
  0
LWPOLYLINE
  5
103
100
AcDbEntity
  8
Layer_1
 62
7
100
AcDbPolyline
 90
111
 70
1
 10
469.333000
 20
2.579685
 30
0.0
 10
456.533000
 20
5.569685
 30
0.0
 10
446.145000
 20
9.029685
 30
0.0
 10
432.841000
 20
14.139685
 30
0.0
 10
419.899000
 20
20.639685
 30
0.0
 10
407.447000
 20
28.429685
 30
0.0
 10
395.611000
 20
37.409685
 30
0.0
 10
384.519000
 20
47.449685
 30
0.0
 10
374.299000
 20
58.469685
 30
0.0
 10
365.077000
 20
70.359685
 30
0.0
 10
356.980000
 20
82.999685
 30
0.0
 10
352.000000
 20
92.749685
 30
0.0
 10
351.727000
 20
93.539685
 30
0.0
 10
351.072000
 20
93.869685
 30
0.0
 10
350.019000
 20
95.279685
 30
0.0
 10
348.792000
 20
98.689685
 30
0.0
 10
346.520000
 20
104.089685
 30
0.0
 10
345.593000
 20
106.459685
 30
0.0
 10
344.137000
 20
111.039685
 30
0.0
 10
341.400000
 20
119.579685
 30
0.0
 10
339.176000
 20
127.465685
 30
0.0
 10
338.090000
 20
131.823685
 30
0.0
 10
337.076000
 20
139.174685
 30
0.0
 10
335.501000
 20
158.634685
 30
0.0
 10
334.925000
 20
177.403685
 30
0.0
 10
335.161000
 20
183.888685
 30
0.0
 10
335.825000
 20
187.034685
 30
0.0
 10
336.744000
 20
190.097685
 30
0.0
 10
337.575000
 20
195.732685
 30
0.0
 10
339.164000
 20
204.265685
 30
0.0
 10
341.313000
 20
212.532685
 30
0.0
 10
342.529000
 20
217.617685
 30
0.0
 10
343.587000
 20
219.732685
 30
0.0
 10
344.257000
 20
220.280685
 30
0.0
 10
344.540000
 20
221.598685
 30
0.0
 10
346.023000
 20
226.295685
 30
0.0
 10
348.829000
 20
233.154685
 30
0.0
 10
353.746000
 20
243.303685
 30
0.0
 10
357.333000
 20
250.578685
 30
0.0
 10
358.157000
 20
251.732685
 30
0.0
 10
361.091000
 20
255.709685
 30
0.0
 10
365.585000
 20
262.515685
 30
0.0
 10
372.590000
 20
271.381685
 30
0.0
 10
380.656000
 20
280.568685
 30
0.0
 10
388.332000
 20
288.341685
 30
0.0
 10
395.223000
 20
294.315685
 30
0.0
 10
402.744000
 20
300.083685
 30
0.0
 10
419.048000
 20
310.637685
 30
0.0
 10
435.977000
 20
319.274685
 30
0.0
 10
444.281000
 20
322.645685
 30
0.0
 10
452.266000
 20
325.263685
 30
0.0
 10
463.466000
 20
328.516685
 30
0.0
 10
470.401000
 20
329.906685
 30
0.0
 10
480.930000
 20
331.298685
 30
0.0
 10
501.357000
 20
332.798685
 30
0.0
 10
520.290000
 20
331.679685
 30
0.0
 10
538.856000
 20
328.381685
 30
0.0
 10
556.879000
 20
322.991685
 30
0.0
 10
574.181000
 20
315.596685
 30
0.0
 10
590.585000
 20
306.285685
 30
0.0
 10
605.915000
 20
295.146685
 30
0.0
 10
619.993000
 20
282.265685
 30
0.0
 10
632.643000
 20
267.732685
 30
0.0
 10
643.310000
 20
252.356685
 30
0.0
 10
647.071000
 20
245.927685
 30
0.0
 10
648.533000
 20
242.336685
 30
0.0
 10
648.846000
 20
241.438685
 30
0.0
 10
649.600000
 20
241.065685
 30
0.0
 10
650.356000
 20
240.673685
 30
0.0
 10
650.676000
 20
239.732685
 30
0.0
 10
653.310000
 20
233.065685
 30
0.0
 10
655.966000
 20
225.865685
 30
0.0
 10
656.254000
 20
224.547685
 30
0.0
 10
656.897000
 20
223.998685
 30
0.0
 10
657.928000
 20
222.197685
 30
0.0
 10
659.149000
 20
217.865685
 30
0.0
 10
661.332000
 20
210.665685
 30
0.0
 10
662.933000
 20
203.732685
 30
0.0
 10
663.835000
 20
199.148685
 30
0.0
 10
664.919000
 20
196.367685
 30
0.0
 10
665.854000
 20
186.020685
 30
0.0
 10
666.188000
 20
165.149685
 30
0.0
 10
665.907000
 20
144.451685
 30
0.0
 10
665.533000
 20
137.511685
 30
0.0
 10
664.999000
 20
134.626685
 30
0.0
 10
663.853000
 20
132.365685
 30
0.0
 10
662.690000
 20
127.998685
 30
0.0
 10
659.499000
 20
114.739685
 30
0.0
 10
656.975000
 20
107.719685
 30
0.0
 10
655.435000
 20
104.249685
 30
0.0
 10
652.684000
 20
97.369685
 30
0.0
 10
650.667000
 20
92.039685
 30
0.0
 10
650.414000
 20
91.069685
 30
0.0
 10
649.805000
 20
90.669685
 30
0.0
 10
648.657000
 20
89.439685
 30
0.0
 10
647.106000
 20
86.499685
 30
0.0
 10
642.634000
 20
78.449685
 30
0.0
 10
640.000000
 20
74.029685
 30
0.0
 10
626.706000
 20
56.939685
 30
0.0
 10
612.772000
 20
42.899685
 30
0.0
 10
599.547000
 20
31.699685
 30
0.0
 10
586.158000
 20
22.679685
 30
0.0
 10
571.734000
 20
15.179685
 30
0.0
 10
560.646000
 20
10.429685
 30
0.0
 10
550.314000
 20
6.839685
 30
0.0
 10
538.959000
 20
3.879685
 30
0.0
 10
524.800000
 20
1.019685
 30
0.0
 10
515.613000
 20
0.399685
 30
0.0
 10
500.267000
 20
0.159685
 30
0.0
 10
482.161000
 20
0.649685
 30
0.0
 10
469.333000
 20
2.579685
 30
0.0
  0
LWPOLYLINE
  5
104
100
AcDbEntity
  8
Layer_1
 62
7
100
AcDbPolyline
 90
94
 70
1
 10
569.600000
 20
50.129685
 30
0.0
 10
569.601000
 20
61.869685
 30
0.0
 10
558.463000
 20
61.869685
 30
0.0
 10
547.329000
 20
61.869685
 30
0.0
 10
546.997000
 20
57.869685
 30
0.0
 10
546.666000
 20
53.869685
 30
0.0
 10
537.424000
 20
53.559685
 30
0.0
 10
529.771000
 20
53.699685
 30
0.0
 10
524.967000
 20
54.629685
 30
0.0
 10
519.355000
 20
59.119685
 30
0.0
 10
510.376000
 20
67.999685
 30
0.0
 10
498.999000
 20
79.999685
 30
0.0
 10
542.835000
 20
79.999685
 30
0.0
 10
586.666000
 20
79.999685
 30
0.0
 10
586.666000
 20
75.729685
 30
0.0
 10
587.306000
 20
71.469685
 30
0.0
 10
598.658000
 20
77.539685
 30
0.0
 10
609.066000
 20
84.169685
 30
0.0
 10
598.700000
 20
90.909685
 30
0.0
 10
587.370000
 20
97.069685
 30
0.0
 10
586.873000
 20
95.809685
 30
0.0
 10
586.666000
 20
92.799685
 30
0.0
 10
586.666000
 20
88.529685
 30
0.0
 10
528.979000
 20
88.529685
 30
0.0
 10
487.077000
 20
88.799685
 30
0.0
 10
471.646000
 20
89.519685
 30
0.0
 10
483.350000
 20
102.169685
 30
0.0
 10
490.858000
 20
109.629685
 30
0.0
 10
496.163000
 20
113.509685
 30
0.0
 10
501.639000
 20
114.969685
 30
0.0
 10
509.659000
 20
115.199685
 30
0.0
 10
514.294000
 20
115.129685
 30
0.0
 10
517.091000
 20
114.699685
 30
0.0
 10
519.041000
 20
113.579685
 30
0.0
 10
521.136000
 20
111.469685
 30
0.0
 10
524.831000
 20
108.379685
 30
0.0
 10
529.561000
 20
107.729685
 30
0.0
 10
534.203000
 20
108.329685
 30
0.0
 10
537.683000
 20
110.849685
 30
0.0
 10
540.174000
 20
114.269685
 30
0.0
 10
540.778000
 20
118.579685
 30
0.0
 10
540.263000
 20
122.319685
 30
0.0
 10
538.875000
 20
125.410685
 30
0.0
 10
536.788000
 20
127.785685
 30
0.0
 10
534.175000
 20
129.371685
 30
0.0
 10
531.209000
 20
130.098685
 30
0.0
 10
528.062000
 20
129.892685
 30
0.0
 10
524.909000
 20
128.683685
 30
0.0
 10
521.921000
 20
126.398685
 30
0.0
 10
518.188000
 20
122.665685
 30
0.0
 10
507.591000
 20
122.665685
 30
0.0
 10
498.632000
 20
122.259685
 30
0.0
 10
493.031000
 20
121.009685
 30
0.0
 10
486.180000
 20
115.729685
 30
0.0
 10
474.131000
 20
103.929685
 30
0.0
 10
459.198000
 20
88.499685
 30
0.0
 10
450.412000
 20
88.519685
 30
0.0
 10
441.627000
 20
88.529685
 30
0.0
 10
440.158000
 20
92.049685
 30
0.0
 10
438.145000
 20
95.349685
 30
0.0
 10
435.370000
 20
98.359685
 30
0.0
 10
430.323000
 20
101.539685
 30
0.0
 10
425.022000
 20
103.059685
 30
0.0
 10
419.752000
 20
103.029685
 30
0.0
 10
414.800000
 20
101.589685
 30
0.0
 10
410.451000
 20
98.869685
 30
0.0
 10
406.991000
 20
94.989685
 30
0.0
 10
404.706000
 20
90.079685
 30
0.0
 10
403.880000
 20
84.269685
 30
0.0
 10
404.369000
 20
79.809685
 30
0.0
 10
405.764000
 20
75.789685
 30
0.0
 10
407.959000
 20
72.279685
 30
0.0
 10
410.845000
 20
69.379685
 30
0.0
 10
414.315000
 20
67.159685
 30
0.0
 10
418.263000
 20
65.729685
 30
0.0
 10
422.581000
 20
65.149685
 30
0.0
 10
427.161000
 20
65.519685
 30
0.0
 10
430.878000
 20
66.949685
 30
0.0
 10
434.669000
 20
69.579685
 30
0.0
 10
437.960000
 20
72.929685
 30
0.0
 10
440.171000
 20
76.519685
 30
0.0
 10
441.627000
 20
79.999685
 30
0.0
 10
464.812000
 20
80.019685
 30
0.0
 10
487.998000
 20
80.029685
 30
0.0
 10
502.931000
 20
64.559685
 30
0.0
 10
515.042000
 20
52.659685
 30
0.0
 10
521.831000
 20
47.479685
 30
0.0
 10
527.491000
 20
46.269685
 30
0.0
 10
536.497000
 20
45.869685
 30
0.0
 10
547.200000
 20
45.869685
 30
0.0
 10
547.200000
 20
42.129685
 30
0.0
 10
547.200000
 20
38.399685
 30
0.0
 10
558.399000
 20
38.399685
 30
0.0
 10
569.601000
 20
38.399685
 30
0.0
  0
LWPOLYLINE
  5
105
100
AcDbEntity
  8
Layer_1
 62
7
100
AcDbPolyline
 90
75
 70
0
 10
509.866000
 20
166.794685
 30
0.0
 10
518.932000
 20
172.078685
 30
0.0
 10
532.095000
 20
180.204685
 30
0.0
 10
539.588000
 20
186.007685
 30
0.0
 10
541.913000
 20
188.739685
 30
0.0
 10
543.665000
 20
191.732685
 30
0.0
 10
546.582000
 20
199.627685
 30
0.0
 10
551.346000
 20
211.249685
 30
0.0
 10
553.039000
 20
215.387685
 30
0.0
 10
553.595000
 20
220.462685
 30
0.0
 10
553.317000
 20
225.133685
 30
0.0
 10
552.371000
 20
228.953685
 30
0.0
 10
550.597000
 20
232.344685
 30
0.0
 10
547.834000
 20
235.731685
 30
0.0
 10
544.842000
 20
240.039685
 30
0.0
 10
543.010000
 20
245.644685
 30
0.0
 10
541.080000
 20
251.442685
 30
0.0
 10
537.512000
 20
256.218685
 30
0.0
 10
533.333000
 20
260.612685
 30
0.0
 10
538.164000
 20
265.374685
 30
0.0
 10
541.728000
 20
269.602685
 30
0.0
 10
544.915000
 20
274.640685
 30
0.0
 10
547.281000
 20
279.680685
 30
0.0
 10
548.378000
 20
283.912685
 30
0.0
 10
548.271000
 20
290.986685
 30
0.0
 10
547.552000
 20
293.018685
 30
0.0
 10
546.399000
 20
293.995685
 30
0.0
 10
542.399000
 20
295.463685
 30
0.0
 10
534.414000
 20
297.745685
 30
0.0
 10
525.949000
 20
298.512685
 30
0.0
 10
517.907000
 20
297.763685
 30
0.0
 10
511.194000
 20
295.497685
 30
0.0
 10
507.230000
 20
292.614685
 30
0.0
 10
504.175000
 20
288.949685
 30
0.0
 10
501.694000
 20
284.790685
 30
0.0
 10
499.113000
 20
288.724685
 30
0.0
 10
496.214000
 20
292.043685
 30
0.0
 10
492.398000
 20
294.717685
 30
0.0
 10
487.846000
 20
296.716685
 30
0.0
 10
482.734000
 20
298.008685
 30
0.0
 10
477.242000
 20
298.561685
 30
0.0
 10
471.548000
 20
298.346685
 30
0.0
 10
465.829000
 20
297.330685
 30
0.0
 10
460.266000
 20
295.483685
 30
0.0
 10
456.266000
 20
293.993685
 30
0.0
 10
455.113000
 20
293.016685
 30
0.0
 10
454.394000
 20
290.984685
 30
0.0
 10
454.287000
 20
283.910685
 30
0.0
 10
455.378000
 20
279.688685
 30
0.0
 10
457.726000
 20
274.694685
 30
0.0
 10
460.890000
 20
269.726685
 30
0.0
 10
464.428000
 20
265.581685
 30
0.0
 10
469.232000
 20
260.926685
 30
0.0
 10
465.124000
 20
256.469685
 30
0.0
 10
461.618000
 20
251.616685
 30
0.0
 10
459.674000
 20
245.738685
 30
0.0
 10
457.915000
 20
240.248685
 30
0.0
 10
455.354000
 20
236.263685
 30
0.0
 10
451.367000
 20
230.599685
 30
0.0
 10
449.418000
 20
224.472685
 30
0.0
 10
449.535000
 20
218.085685
 30
0.0
 10
451.748000
 20
211.644685
 30
0.0
 10
457.254000
 20
197.953685
 30
0.0
 10
460.146000
 20
190.680685
 30
0.0
 10
463.942000
 20
185.422685
 30
0.0
 10
470.127000
 20
180.693685
 30
0.0
 10
480.188000
 20
175.006685
 30
0.0
 10
486.986000
 20
170.576685
 30
0.0
 10
488.508000
 20
169.060685
 30
0.0
 10
490.916000
 20
167.758685
 30
0.0
 10
497.382000
 20
165.967685
 30
0.0
 10
504.370000
 20
165.533685
 30
0.0
 10
507.431000
 20
165.930685
 30
0.0
 10
509.866000
 20
166.792685
 30
0.0
 10
509.866000
 20
166.792685
 30
0.0
  0
LWPOLYLINE
  5
106
100
AcDbEntity
  8
Layer_1
 62
7
100
AcDbPolyline
 90
1
 70
1
 10
455.454000
 20
213.598685
 30
0.0
  0
LWPOLYLINE
  5
107
100
AcDbEntity
  8
Layer_1
 62
7
100
AcDbPolyline
 90
33
 70
1
 10
670.514000
 20
1.689685
 30
0.0
 10
669.866000
 20
54.809685
 30
0.0
 10
670.146000
 20
95.269685
 30
0.0
 10
670.541000
 20
104.299685
 30
0.0
 10
671.146000
 20
107.519685
 30
0.0
 10
685.794000
 20
108.129685
 30
0.0
 10
723.270000
 20
108.569685
 30
0.0
 10
836.266000
 20
108.909685
 30
0.0
 10
949.263000
 20
108.569685
 30
0.0
 10
986.738000
 20
108.129685
 30
0.0
 10
1001.390000
 20
107.519685
 30
0.0
 10
1002.300000
 20
105.459685
 30
0.0
 10
1002.640000
 20
101.919685
 30
0.0
 10
1001.800000
 20
91.679685
 30
0.0
 10
999.238000
 20
79.319685
 30
0.0
 10
995.339000
 20
67.369685
 30
0.0
 10
988.546000
 20
53.679685
 30
0.0
 10
979.767000
 20
40.699685
 30
0.0
 10
969.568000
 20
29.159685
 30
0.0
 10
964.113000
 20
24.149685
 30
0.0
 10
958.515000
 20
19.779685
 30
0.0
 10
945.646000
 20
11.869685
 30
0.0
 10
939.628000
 20
8.729685
 30
0.0
 10
936.276000
 20
7.469685
 30
0.0
 10
931.894000
 20
5.919685
 30
0.0
 10
919.320000
 20
2.189685
 30
0.0
 10
911.830000
 20
0.939685
 30
0.0
 10
895.374000
 20
0.289685
 30
0.0
 10
790.635000
 20
-0.000315
 30
0.0
 10
690.309000
 20
0.269685
 30
0.0
 10
674.348000
 20
0.779685
 30
0.0
 10
671.415000
 20
1.179685
 30
0.0
 10
670.514000
 20
1.689685
 30
0.0
  0
LWPOLYLINE
  5
108
100
AcDbEntity
  8
Layer_1
 62
7
100
AcDbPolyline
 90
26
 70
0
 10
672.000000
 20
111.979685
 30
0.0
 10
671.157000
 20
114.309685
 30
0.0
 10
670.630000
 20
121.959685
 30
0.0
 10
670.103000
 20
164.774685
 30
0.0
 10
670.159000
 20
204.343685
 30
0.0
 10
670.941000
 20
218.680685
 30
0.0
 10
671.693000
 20
219.374685
 30
0.0
 10
674.362000
 20
219.897685
 30
0.0
 10
692.984000
 20
220.526685
 30
0.0
 10
836.090000
 20
220.798685
 30
0.0
 10
965.674000
 20
220.528685
 30
0.0
 10
992.883000
 20
220.134685
 30
0.0
 10
1001.390000
 20
219.518685
 30
0.0
 10
1001.990000
 20
214.454685
 30
0.0
 10
1002.420000
 20
202.233685
 30
0.0
 10
1002.770000
 20
165.865685
 30
0.0
 10
1002.420000
 20
129.497685
 30
0.0
 10
1001.990000
 20
117.279685
 30
0.0
 10
1001.390000
 20
112.209685
 30
0.0
 10
986.873000
 20
111.669685
 30
0.0
 10
949.596000
 20
111.269685
 30
0.0
 10
837.044000
 20
110.879685
 30
0.0
 10
724.316000
 20
111.099685
 30
0.0
 10
686.820000
 20
111.459685
 30
0.0
 10
671.999000
 20
111.979685
 30
0.0
 10
671.999000
 20
111.979685
 30
0.0
  0
LWPOLYLINE
  5
109
100
AcDbEntity
  8
Layer_1
 62
7
100
AcDbPolyline
 90
35
 70
1
 10
670.728000
 20
225.622685
 30
0.0
 10
670.220000
 20
227.533685
 30
0.0
 10
670.138000
 20
230.457685
 30
0.0
 10
671.325000
 20
241.294685
 30
0.0
 10
674.050000
 20
255.404685
 30
0.0
 10
675.745000
 20
260.230685
 30
0.0
 10
677.404000
 20
265.563685
 30
0.0
 10
681.523000
 20
273.873685
 30
0.0
 10
686.537000
 20
282.856685
 30
0.0
 10
692.555000
 20
291.377685
 30
0.0
 10
699.467000
 20
299.341685
 30
0.0
 10
707.158000
 20
306.649685
 30
0.0
 10
715.516000
 20
313.204685
 30
0.0
 10
724.429000
 20
318.908685
 30
0.0
 10
733.783000
 20
323.665685
 30
0.0
 10
743.466000
 20
327.377685
 30
0.0
 10
749.266000
 20
329.165685
 30
0.0
 10
755.128000
 20
330.509685
 30
0.0
 10
762.694000
 20
331.472685
 30
0.0
 10
773.605000
 20
332.118685
 30
0.0
 10
812.031000
 20
332.711685
 30
0.0
 10
883.536000
 20
332.797685
 30
0.0
 10
970.514000
 20
332.524685
 30
0.0
 10
1000.600000
 20
331.694685
 30
0.0
 10
1001.270000
 20
331.168685
 30
0.0
 10
1001.770000
 20
330.012685
 30
0.0
 10
1002.380000
 20
323.540685
 30
0.0
 10
1002.670000
 20
278.041685
 30
0.0
 10
1002.390000
 20
236.693685
 30
0.0
 10
1001.990000
 20
227.480685
 30
0.0
 10
1001.390000
 20
224.212685
 30
0.0
 10
992.880000
 20
223.596685
 30
0.0
 10
965.661000
 20
223.202685
 30
0.0
 10
836.030000
 20
222.932685
 30
0.0
 10
671.955000
 20
222.932685
 30
0.0
  0
ENDSEC
  0
SECTION
  2
OBJECTS
  0
DICTIONARY
  5
C
330
0
100
AcDbDictionary
  3
ACAD_GROUP
350
D
  3
ACAD_MLINESTYLE
350
17
  0
DICTIONARY
  5
D
330
C
100
AcDbDictionary
  0
DICTIONARY
  5
1A
330
C
100
AcDbDictionary
  0
DICTIONARY
  5
17
330
C
100
AcDbDictionary
  3
STANDARD
350
18
  0
DICTIONARY
  5
19
330
C
100
AcDbDictionary
  0
ENDSEC
  0
EOF
