<?xml version="1.0" encoding="UTF-8" standalone="no"?>
<!-- Created with Inkscape (http://www.inkscape.org/) -->

<svg
   width="265.31619mm"
   height="88.11911mm"
   viewBox="0 0 265.31619 88.11911"
   version="1.1"
   id="svg5"
   inkscape:version="1.1.2 (0a00cf5339, 2022-02-04)"
   sodipodi:docname="usbsid.svg"
   xmlns:inkscape="http://www.inkscape.org/namespaces/inkscape"
   xmlns:sodipodi="http://sodipodi.sourceforge.net/DTD/sodipodi-0.dtd"
   xmlns:xlink="http://www.w3.org/1999/xlink"
   xmlns="http://www.w3.org/2000/svg"
   xmlns:svg="http://www.w3.org/2000/svg">
  <sodipodi:namedview
     id="namedview7"
     pagecolor="#ffffff"
     bordercolor="#666666"
     borderopacity="1.0"
     inkscape:pageshadow="2"
     inkscape:pageopacity="0.0"
     inkscape:pagecheckerboard="0"
     inkscape:document-units="mm"
     showgrid="false"
     inkscape:zoom="0.77771465"
     inkscape:cx="777.27738"
     inkscape:cy="247.52009"
     inkscape:window-width="1720"
     inkscape:window-height="1367"
     inkscape:window-x="1720"
     inkscape:window-y="480"
     inkscape:window-maximized="0"
     inkscape:current-layer="layer1" />
  <defs
     id="defs2" />
  <g
     inkscape:label="Layer 1"
     inkscape:groupmode="layer"
     id="layer1"
     transform="translate(9.7788119,-109.83522)">
    <path
       style="fill:#000000;stroke-width:0.282222"
       d="m -9.5880813,197.76876 c -0.1049017,-0.1049 -0.1907306,-19.76566 -0.1907306,-43.69058 0,-33.45692 0.078189,-43.57804 0.3386667,-43.83852 0.4994458,-0.49945 27.2933822,-0.48593 27.9727282,0.0141 0.447844,0.32964 0.47452,3.21237 0.406719,43.95611 l -0.07256,43.60334 -14.1320454,0.0731 c -7.7726254,0.0402 -14.2178759,-0.0127 -14.3227779,-0.11759 z M 19.85452,154.07415 v -43.88018 l 0.76513,-0.19204 c 0.420821,-0.10562 1.913071,-0.0337 3.316111,0.15977 12.330833,1.70053 22.011506,10.95238 24.260388,23.18573 0.387638,2.10866 0.445036,6.37346 0.445036,33.06747 0,16.85563 -0.07709,30.84748 -0.171306,31.09301 -0.153071,0.3989 -1.68505,0.44642 -14.393332,0.44642 H 19.85452 Z m 29.523409,43.43635 c -0.09476,-0.24695 -0.172299,-19.86055 -0.172299,-43.58576 0,-47.7117 -0.149403,-44.02506 1.784048,-44.02261 1.786506,0.002 6.028407,0.85232 8.318734,1.66705 7.174176,2.55203 13.40869,8.30039 16.250075,14.98292 0.428998,1.00895 0.894001,2.08845 1.033343,2.39889 0.139338,0.31045 0.511993,1.66357 0.828124,3.00695 0.562706,2.3912 0.573272,3.10855 0.503005,34.14889 l -0.07178,31.70639 -14.150478,0.0731 c -12.720319,0.0658 -14.167888,0.0278 -14.322777,-0.37586 z m 65.021031,-0.24009 c -1.62983,-0.34694 -3.15383,-0.70222 -3.38667,-0.7895 -0.23283,-0.0873 -1.46969,-0.49951 -2.74858,-0.91606 -9.484358,-3.08921 -18.306031,-10.40741 -23.591441,-19.57075 -0.724764,-1.25652 -1.317752,-2.4175 -1.317752,-2.57996 0,-0.16245 -0.110496,-0.29537 -0.245545,-0.29537 -0.135048,0 -0.40647,-0.57477 -0.603156,-1.27727 -0.196689,-0.7025 -0.467194,-1.34499 -0.601122,-1.42777 -0.133932,-0.0828 -0.244292,-0.36525 -0.245249,-0.62773 -8.46e-4,-0.26248 -0.174371,-0.80807 -0.385368,-1.21242 -0.210995,-0.40436 -0.536829,-1.42036 -0.724075,-2.25778 -0.187246,-0.83742 -0.452022,-1.77658 -0.588394,-2.08703 -0.777627,-1.77024 -1.520094,-14.9677 -0.886692,-15.76108 0.142966,-0.17907 0.351353,-1.21459 0.463088,-2.30114 0.111734,-1.08656 0.300925,-2.10256 0.420426,-2.25778 0.119501,-0.15522 0.375387,-1.13947 0.568638,-2.18722 0.193249,-1.04775 0.463982,-1.905 0.601627,-1.905 0.137646,0 0.251048,-0.22225 0.252005,-0.49389 8.47e-4,-0.27164 0.177555,-0.83086 0.392441,-1.24272 0.21489,-0.41185 0.54901,-1.22849 0.742493,-1.81475 0.193483,-0.58626 0.778885,-1.79466 1.300892,-2.68533 0.522007,-0.89067 0.949102,-1.75678 0.949102,-1.92469 0,-0.16791 0.09812,-0.30529 0.218045,-0.30529 0.119922,0 0.469172,-0.47361 0.776111,-1.05246 0.972222,-1.83351 4.738886,-6.34548 7.207693,-8.63387 4.601681,-4.26539 11.431303,-8.20942 16.915923,-9.76877 1.16417,-0.33099 2.49767,-0.71839 2.96334,-0.86088 1.47628,-0.45175 7.50386,-1.13291 10.02511,-1.13291 13.44628,0 26.35664,6.39849 34.73617,17.21556 1.92061,2.4793 4.20427,6.129 4.20427,6.71919 0,0.185 0.127,0.33636 0.28222,0.33636 0.15523,0 0.28339,0.15875 0.28481,0.35278 0.001,0.19403 0.31494,0.98778 0.69673,1.76389 0.38178,0.77611 0.69812,1.63336 0.70297,1.905 0.005,0.27164 0.11562,0.49389 0.24614,0.49389 0.13052,0 0.39866,0.73025 0.59586,1.62278 0.1972,0.89253 0.45719,1.74978 0.57775,1.905 0.12057,0.15522 0.31115,0.98072 0.42352,1.83444 0.11237,0.85372 0.34884,1.73059 0.52549,1.9486 0.434,0.53561 0.45398,16.04526 0.0211,16.33565 -0.16507,0.11072 -0.43997,0.89981 -0.6109,1.75353 -0.47361,2.36561 -1.27362,5.20395 -1.51217,5.36505 -0.11723,0.0792 -0.30056,0.49221 -0.4074,0.91789 -0.10684,0.42567 -0.43441,1.245 -0.72793,1.82073 -0.29353,0.57573 -0.53368,1.21043 -0.53368,1.41045 0,0.20001 -0.10256,0.36366 -0.22791,0.36366 -0.12535,0 -0.44677,0.49604 -0.71425,1.10232 -0.26749,0.60627 -0.79993,1.56441 -1.1832,2.1292 -0.38328,0.56478 -0.69687,1.09152 -0.69687,1.17052 0,0.13446 -2.8756,3.82996 -3.51747,4.52039 -5.14308,5.53217 -9.17076,8.59198 -14.54475,11.04957 -4.2543,1.94556 -6.7189,2.68932 -12.41777,3.74744 -0.6985,0.12969 -3.6195,0.23142 -6.49111,0.22606 -4.30601,-0.008 -5.7405,-0.12029 -8.18445,-0.64053 z m 26.52889,-12.58053 v -3.10444 h -2.9463 -2.9463 l -0.0876,1.05833 -0.0876,1.05833 -2.44536,0.0812 c -1.54157,0.0512 -2.75972,-0.0531 -3.29591,-0.28223 -0.4678,-0.19987 -2.20509,-1.79216 -3.86064,-3.53841 l -3.01009,-3.175 h 11.59767 11.59766 v 1.12889 c 0,0.62089 0.0762,1.12889 0.1693,1.12889 0.33289,0 5.75737,-3.16798 5.75737,-3.36238 0,-0.20209 -5.40014,-3.41096 -5.74023,-3.41096 -0.10254,0 -0.18644,0.508 -0.18644,1.12889 v 1.12889 h -15.26351 c -9.28075,0 -15.22665,-0.1028 -15.16945,-0.26226 0.0517,-0.14425 1.44529,-1.64957 3.09678,-3.34516 3.31652,-3.40509 3.40342,-3.44813 6.96087,-3.44813 2.07597,0 2.15564,0.0259 3.03667,0.98777 0.78772,0.85999 1.07609,0.98778 2.22897,0.98778 1.0873,0 1.47179,-0.14759 2.14916,-0.82496 0.66081,-0.66081 0.82371,-1.06793 0.81868,-2.04611 -0.0146,-2.8467 -2.98079,-4.07609 -4.98905,-2.06782 l -0.98778,0.98778 h -2.80307 c -1.89327,0 -3.14363,0.14206 -3.85233,0.43769 -0.66298,0.27655 -2.50388,1.94032 -5.00038,4.51922 l -3.95111,4.08154 -2.32455,-0.004 -2.32454,-0.004 -0.38875,-0.9304 c -0.21381,-0.51172 -0.78379,-1.2628 -1.26662,-1.66908 -3.40437,-2.86459 -8.331746,-0.65965 -8.331746,3.72837 0,3.27529 2.860478,5.5783 6.159806,4.95934 1.22983,-0.23072 2.92002,-1.659 3.44223,-2.90882 l 0.38508,-0.92163 6.13454,-0.004 6.13455,-0.004 3.95111,4.09321 c 2.55609,2.64802 4.32158,4.24382 5.00038,4.51976 0.69495,0.28252 2.00534,0.42655 3.88055,0.42655 h 2.83129 v 0.98778 0.98778 h 2.96333 2.96334 z M 125.1234,153.82299 c 0.38806,-0.21088 1.46756,-0.84004 2.39889,-1.39814 5.90894,-3.54088 6.22621,-3.85701 7.3155,-7.28911 0.36667,-1.1553 0.93396,-2.53898 1.26065,-3.07486 0.40156,-0.65872 0.59431,-1.44834 0.59502,-2.43763 0.001,-1.84792 -0.35642,-2.79603 -1.52443,-4.04003 -0.65603,-0.69872 -1.02949,-1.46627 -1.27619,-2.62284 -0.26609,-1.24753 -0.61085,-1.91059 -1.4546,-2.79756 l -1.10585,-1.16249 1.27813,-1.26008 c 1.27137,-1.25341 2.59154,-3.64939 2.70252,-4.90478 0.14037,-1.58794 -0.0413,-2.5137 -0.52353,-2.66781 -0.27163,-0.0868 -0.74788,-0.26156 -1.05833,-0.38831 -2.62623,-1.07228 -6.2284,-1.0764 -8.25644,-0.009 -0.70698,0.37195 -1.47081,1.08443 -1.85716,1.73231 l -0.65626,1.1005 -0.68285,-1.04083 c -1.68094,-2.56219 -6.44944,-3.39192 -10.2784,-1.78846 -0.31044,0.13 -0.78669,0.3074 -1.05833,0.39422 -0.48223,0.15411 -0.6639,1.07987 -0.52353,2.66781 0.11136,1.25968 1.42058,3.62606 2.68309,4.84959 l 1.27099,1.23175 -1.08696,1.17921 c -0.81765,0.88704 -1.17486,1.59052 -1.44173,2.83931 -0.23144,1.08301 -0.62884,1.95443 -1.14318,2.50677 -1.76203,1.89223 -2.10818,4.25595 -0.95392,6.51384 0.39037,0.76361 1.04593,2.39364 1.4568,3.6223 1.03536,3.09606 1.66026,3.72132 6.06788,6.0714 0.88122,0.46985 1.69064,0.99734 1.7987,1.1722 0.70185,1.13562 4.61513,1.78281 6.05352,1.00115 z m -4.09222,-1.27278 c -1.56264,-0.71757 -2.30653,-1.58149 -1.84284,-2.1402 1.05849,-1.27541 6.95144,-1.30474 7.43792,-0.037 0.23341,0.60827 -0.62608,1.59256 -1.89303,2.1679 -1.45879,0.66246 -2.27523,0.66452 -3.70205,0.009 z m 7.19667,-3.06159 c -2.21094,-0.84163 0.27084,-6.28899 3.30167,-7.24701 0.442,-0.13971 0.79603,-0.0207 1.23036,0.41363 0.52782,0.52783 0.59435,0.85223 0.49494,2.41344 -0.10495,1.64821 -0.21012,1.90121 -1.22048,2.93591 -0.6081,0.62275 -1.55458,1.25699 -2.10329,1.40943 -1.09783,0.30499 -1.09795,0.305 -1.7032,0.0746 z m -13.54954,-0.71152 c -1.31223,-0.89309 -1.98891,-1.90779 -2.16934,-3.25294 -0.31999,-2.38571 0.45085,-3.25909 2.22205,-2.51764 2.1309,0.89202 3.97601,4.01886 3.34729,5.67252 -0.23393,0.61528 -0.4545,0.73306 -1.37285,0.73306 -0.67007,0 -1.45576,-0.24611 -2.02715,-0.635 z m 6.96919,-0.89951 c -1.44301,-0.51901 -2.11076,-1.17048 -2.48703,-2.42636 -0.23439,-0.78233 -0.22902,-1.30308 0.0213,-2.06148 1.0758,-3.25971 5.71835,-3.57251 7.27583,-0.49022 1.54126,3.05019 -1.47918,6.17612 -4.81008,4.97806 z m -10.92052,-6.43826 c -1.01929,-1.67175 -0.63266,-3.7786 0.96779,-5.27382 1.02921,-0.96154 1.43548,-0.46107 1.42942,1.76084 -0.005,1.95659 -0.80592,4.4302 -1.43383,4.4302 -0.22228,0 -0.6558,-0.41275 -0.96338,-0.91722 z m 22.46068,0.28321 c -0.45597,-0.6959 -1.0087,-3.12369 -1.0087,-4.43057 0,-0.41481 0.1751,-0.99367 0.38912,-1.28636 0.36392,-0.49768 0.4343,-0.50255 1.0867,-0.0751 1.50988,0.98931 2.0462,3.48594 1.1343,5.28031 -0.6222,1.22432 -1.0458,1.35967 -1.60142,0.51169 z m -16.78594,-0.5696 c -2.50488,-1.2873 -2.43778,-4.91259 0.12714,-6.86895 2.74752,-2.09564 6.24152,0.0842 5.48826,3.42405 -0.33582,1.48899 -1.08466,2.4212 -2.54393,3.16684 -1.40545,0.71815 -2.09386,0.78047 -3.07147,0.27806 z m 10.1386,-0.24025 c -2.72449,-1.08704 -3.71975,-5.01738 -1.72243,-6.80199 2.06841,-1.84812 5.41491,-0.43372 6.2421,2.63825 0.81349,3.02108 -1.66373,5.30322 -4.51967,4.16374 z m -13.55247,-7.33293 c 0,-1.27109 0.77555,-2.70637 1.79393,-3.31998 1.04563,-0.63002 2.64515,-0.92978 3.39492,-0.63623 0.48835,0.1912 0.45349,0.29824 -0.42334,1.2999 -0.9789,1.11825 -4.06351,3.53088 -4.51434,3.53088 -0.13814,0 -0.25117,-0.39356 -0.25117,-0.87457 z m 17.31716,-0.34511 c -0.90961,-0.67081 -2.09161,-1.71856 -2.62668,-2.32833 l -0.97285,-1.10866 1.34246,-0.0867 c 1.60593,-0.10372 2.8428,0.52092 3.77728,1.90759 0.62251,0.92374 0.88195,2.83579 0.38479,2.83579 -0.13815,0 -0.9954,-0.54886 -1.905,-1.21968 z m -9.27009,-0.60073 c -1.06326,-0.39387 -1.83818,-1.08605 -1.83818,-1.64191 0,-0.56601 1.67922,-1.87168 2.63865,-2.05167 2.32346,-0.43589 4.97793,0.97804 4.60744,2.45419 -0.33044,1.3166 -3.3385,2.00599 -5.40791,1.23939 z m -4.6604,-4.07485 c 0,-0.1725 -0.22502,-0.31363 -0.50005,-0.31363 -0.27502,0 -1.12251,-0.5715 -1.88333,-1.27 -0.76081,-0.6985 -1.20603,-1.27 -0.98938,-1.27 0.23587,0 0.14036,-0.17759 -0.23806,-0.44265 -0.34758,-0.24345 -0.5554,-0.56651 -0.46183,-0.71792 0.0936,-0.1514 0.0167,-0.46021 -0.17095,-0.68624 -0.18759,-0.22603 -0.24234,-0.41097 -0.12167,-0.41097 0.12068,0 -0.0104,-0.254 -0.2914,-0.56444 -0.33788,-0.37335 -0.3901,-0.56445 -0.15426,-0.56445 0.23941,0 0.29838,-0.23183 0.17948,-0.70555 -0.14509,-0.5781 -0.0742,-0.70556 0.39274,-0.70556 0.3134,0 0.56982,-0.13709 0.56982,-0.30465 0,-0.19167 0.31397,-0.23568 0.84666,-0.11868 0.49394,0.10848 0.84667,0.07 0.84667,-0.0923 0,-0.15302 0.254,-0.2118 0.56444,-0.13062 0.32318,0.0845 0.56445,0.009 0.56445,-0.17746 0,-0.23761 0.15185,-0.2438 0.56444,-0.023 0.40104,0.21463 0.56445,0.21463 0.56445,0 0,-0.20237 0.20961,-0.18871 0.635,0.0414 0.34925,0.1889 0.93653,0.37689 1.30507,0.41775 2.03527,0.22564 3.55747,1.91452 3.37607,3.74574 -0.14755,1.48946 -0.77454,1.67813 -2.24013,0.67407 -1.45514,-0.99689 -3.48287,-2.0567 -3.93508,-2.0567 -0.17441,0 0.62822,0.63227 1.78361,1.40504 3.14722,2.10499 3.30787,2.47967 1.59363,3.71668 -0.85163,0.61455 -2.80039,1.00016 -2.80039,0.55413 z m 11.57111,-0.0799 c -1.08855,-0.30831 -2.25778,-1.25529 -2.25778,-1.82862 0,-0.4052 2.43992,-2.42628 3.74189,-3.09956 0.45436,-0.23496 0.76312,-0.4902 0.68613,-0.56719 -0.18256,-0.18256 -2.26025,0.87716 -3.83515,1.9561 -1.38576,0.94938 -1.9307,0.84424 -2.36416,-0.45613 -0.32695,-0.98084 0.71519,-3.29392 1.48405,-3.29392 0.27999,0 0.58135,-0.18836 0.66969,-0.41857 0.0883,-0.23022 0.34309,-0.34856 0.5661,-0.26299 0.223,0.0856 0.48588,0.0255 0.58416,-0.13354 0.0983,-0.15902 0.36675,-0.21697 0.59659,-0.12878 0.22984,0.0882 0.60677,0.004 0.83762,-0.18799 0.25642,-0.2128 0.41974,-0.23391 0.41974,-0.0543 0,0.17297 0.52153,0.25894 1.26623,0.20873 0.82264,-0.0555 1.20274,0.0174 1.085,0.20785 -0.11879,0.19221 0.12557,0.23186 0.70934,0.11511 0.51211,-0.10243 0.89055,-0.0612 0.89055,0.0971 0,0.15134 0.30273,0.27517 0.67274,0.27517 0.56547,0 0.6627,0.1276 0.60979,0.80025 -0.0346,0.44013 -0.15435,0.94813 -0.26607,1.12889 -0.11171,0.18075 -0.12118,0.4612 -0.0211,0.62322 0.10014,0.16202 0.0286,0.47952 -0.15901,0.70556 -0.18759,0.22603 -0.24234,0.41097 -0.12167,0.41097 0.12068,0 0.009,0.23256 -0.24828,0.51679 -0.25723,0.28423 -0.39154,0.59294 -0.29848,0.686 0.0931,0.0931 -0.0972,0.33556 -0.42272,0.53888 -0.32556,0.20331 -0.59192,0.52961 -0.59192,0.72511 0,0.19549 -0.19449,0.35544 -0.43219,0.35544 -0.23771,0 -0.5053,0.1905 -0.59464,0.42333 -0.0893,0.23284 -0.39537,0.42334 -0.68005,0.42334 -0.28467,0 -0.59608,0.127 -0.69201,0.28222 -0.20637,0.33391 -0.51303,0.32581 -1.83445,-0.0485 z m 39.68241,69.02871 c -0.0942,-0.24553 -0.1713,-6.57013 -0.1713,-14.05467 0,-10.2079 0.0846,-13.69287 0.33866,-13.94691 0.49237,-0.49237 86.88363,-0.49237 87.376,0 0.85776,0.85777 -0.0333,6.77391 -1.60012,10.6241 -1.97939,4.86391 -5.75985,9.74963 -9.74277,12.59114 -1.73608,1.23856 -5.38282,3.2572 -5.88424,3.2572 -0.14851,0 -0.67021,0.18424 -1.15933,0.40942 -0.48912,0.22518 -1.98618,0.66968 -3.32678,0.98778 -2.38135,0.56504 -3.16508,0.57836 -34.04814,0.57836 -28.56445,0 -31.62718,-0.043 -31.78198,-0.44642 z m 0.39314,-29.18081 c -0.36501,-0.23063 -0.43413,-2.15513 -0.50172,-13.9696 -0.0531,-9.28116 0.0184,-13.88297 0.22159,-14.26265 0.29729,-0.55549 0.68994,-0.56052 43.69583,-0.56052 33.37603,0 43.47406,0.0782 43.73452,0.33866 0.48799,0.488 0.48799,27.90356 0,28.39156 -0.42785,0.42784 -86.47433,0.48959 -87.15022,0.0625 z m -0.33639,-30.06895 c -0.25212,-0.55335 -0.21701,-1.47605 0.15781,-4.14669 0.26515,-1.88923 0.58964,-3.5692 0.72108,-3.73327 0.13145,-0.16407 0.3333,-0.73864 0.44857,-1.27682 0.11528,-0.53818 0.31279,-1.17318 0.43892,-1.41111 0.12613,-0.23793 0.61655,-1.22733 1.08982,-2.19866 3.15595,-6.47726 9.46758,-11.92894 16.38908,-14.1561 4.45567,-1.43371 4.4555,-1.43371 37.06022,-1.43412 20.4358,-2.6e-4 30.60727,0.0956 30.97387,0.29176 0.52838,0.28278 0.5459,0.73852 0.5459,14.19578 0,10.43764 -0.0844,13.98805 -0.33866,14.2423 -0.26046,0.26047 -10.36204,0.33866 -43.7505,0.33866 h -43.41182 z"
       id="path373" />
  </g>
</svg>
